# AST/ASF file generated using VICON BodyLanguage
# -----------------------------------------------
:version 1.10
:name VICON
:units
  mass 1.0
  length 0.45
  angle deg
:documentation
   .ast/.asf automatically generated from VICON data using
   VICON BodyBuilder and BodyLanguage model FoxedUp or BRILLIANT.MOD
:root
   order TX TY TZ RX RY RZ
   axis XYZ
   position 0 0 0  
   orientation 0 0 0 
:bonedata
  begin
     id 1 
     name lhipjoint
     direction 0.558404 -0.748506 0.357664 
     length 2.4234 
     axis 0 0 0  XYZ
  end
  begin
     id 2 
     name lfemur
     direction 0.34202 -0.939693 0  
     length 7.14567  
     axis 0 0 20  XYZ
    dof rx ry rz
    limits (-160.0 20.0)
           (-70.0 70.0)
           (-60.0 70.0)
  end
  begin
     id 3 
     name ltibia
     direction 0.34202 -0.939693 0   
     length 8.13956   
     axis 0 0 20   XYZ
    dof rx
    limits (-10.0 170.0)
  end
  begin
     id 4 
     name lfoot
     direction 0.0791314 -0.217412 0.972867   
     length 2.00134   
     axis -90 7.62852e-016 20   XYZ
    dof rx rz
    limits (-45.0 90.0)
           (-70.0 20.0)
  end
  begin
     id 5 
     name ltoes
     direction 1.53547e-011 -4.21922e-011 1   
     length 1.00735   
     axis -90 7.62852e-016 20   XYZ
    dof rx
    limits (-90.0 20.0)
  end
  begin
     id 6 
     name rhipjoint
     direction -0.496392 -0.78327 0.374276   
     length 2.31584  
     axis 0 0 0  XYZ 
  end
  begin
     id 7 
     name rfemur
     direction -0.34202 -0.939693 0   
     length 7.47417   
     axis 0 0 -20   XYZ
    dof rx ry rz
    limits (-160.0 20.0)
           (-70.0 70.0)
           (-70.0 60.0)
  end
  begin
     id 8 
     name rtibia
     direction -0.34202 -0.939693 0   
     length 7.69071   
     axis 0 0 -20   XYZ
    dof rx
    limits (-10.0 170.0)
 end
 begin
     id 9 
     name rfoot
     direction -0.103069 -0.28318 0.953512   
     length 2.16135  
     axis -90 -7.62852e-016 -20   XYZ
    dof rx rz
    limits (-45.0 90.0)
           (-20.0 70.0)
  end
  begin
     id 10 
     name rtoes
     direction -1.53581e-011 -4.21904e-011 1   
     length 1.07867   
     axis -90 -7.62852e-016 -20   XYZ
    dof rx
    limits (-90.0 20.0)
  end
  begin
     id 11 
     name lowerback
     direction -0.0258961 0.994776 -0.0987407   
     length 2.19412   
     axis 0 0 0   XYZ
    dof rx ry rz
    limits (-20.0 45.0)
           (-30.0 30.0)
           (-30.0 30.0)
  end
  begin
     id 12 
     name upperback
     direction 0.0402454 0.999185 0.00320666   
     length 2.18445   
     axis 0 0 0   XYZ
    dof rx ry rz
    limits (-20.0 45.0)
           (-30.0 30.0)
           (-30.0 30.0)
  end
  begin
     id 13 
     name thorax
     direction 0.0519376 0.997415 0.0496558   
     length 2.21487   
     axis 0 0 0   XYZ
    dof rx ry rz
    limits (-20.0 45.0)
           (-30.0 30.0)
           (-30.0 30.0)
  end
  begin
     id 14 
     name lowerneck
     direction -0.0921276 0.983211 0.157506   
     length 1.61201   
     axis 0 0 0   XYZ
    dof rx ry rz
    limits (-20.0 45.0)
           (-30.0 30.0)
           (-30.0 30.0)
  end
  begin
     id 15 
     name upperneck
     direction 0.0820814 0.98162 -0.172292   
     length 1.65275   
     axis 0 0 0   XYZ
    dof rx ry rz
    limits (-20.0 45.0)
           (-30.0 30.0)
           (-30.0 30.0)
  end
  begin
     id 16
     name head
     direction 0.0336554 0.996413 -0.0776455  
     length 1.66415  
     axis 0 0 0   XYZ
    dof rx ry rz
    limits (-20.0 45.0)
           (-30.0 30.0)
           (-30.0 30.0)
  end
  begin
     id 17 
     name lclavicle
     direction 0.94696 0.284418 -0.149576  
     length 3.41447  
     axis 0 0 0   XYZ
    dof ry rz
    limits (-20.0 10.0)
           (0.0 20.0)
  end
  begin
     id 18 
     name lhumerus
     direction 1 -0.000130264 -9.81312e-005   
     length 5.19964   
     axis 180 -30 -90   XYZ
    dof rx ry rz
    limits (-60.0 90.0)
           (-90.0 90.0)
           (-90.0 90.0)
  end
  begin
     id 19
     name lradius
     direction 1 -4.48961e-011 1.43854e-026   
     length 3.32189   
     axis 180 -30 -90   XYZ
    dof rx
    limits (-10.0 170.0)
  end
  begin
     id 20
     name lwrist
     direction 1 -4.48958e-011 3.1502e-026   
     length 1.66095   
     axis -1.97692e-014 90 90   XYZ
    dof ry
    limits (-180.0 0.0)
 end
  begin
     id 21 
     name lhand
     direction 1 -4.48927e-011 6.3004e-026   
     length 0.645616   
     axis -4.02019e-014 90 90   XYZ
    dof rx rz
    limits (-90.0 90.0)
           (-45.0 45.0)
  end
  begin
     id 22 
     name lfingers
     direction 1 -4.4904e-011 1.26008e-025   
     length 0.520512   
     axis -8.04039e-014 90 90   XYZ
    dof rx
    limits (0.0 90.0)
  end
  begin
     id 23
     name lthumb
     direction 0.707107 -6.34947e-011 0.707107   
     length 0.747354   
     axis -90 45 2.85299e-015   XYZ
    dof rx rz
    limits (-45.0 45.0)
           (-45.0 45.0)
  end
  begin
     id 24 
     name rclavicle
     direction -0.909391 0.383475 -0.161107   
     length 3.25176  
     axis 0 0 0   XYZ 
    dof ry rz
    limits (-10.0 20.0)
           (-20.0 0.0)
  end
  begin
     id 25 
     name rhumerus
     direction -1 -4.48965e-011 -1.81384e-027  
     length 5.6595   
     axis 180 30 90   XYZ
    dof rx ry rz
    limits (-90.0 60.0)
           (-90.0 90.0)
           (-90.0 90.0)
  end
  begin
     id 26 
     name rradius
     direction -1 -4.48996e-011 -8.09397e-027   
     length 3.37604   
     axis 180 30 90   XYZ
    dof rx
    limits (-10.0 170.0)
  end
  begin
     id 27 
     name rwrist
     direction -1 -4.48927e-011 -1.56669e-026   
     length 1.68802   
     axis 1.21142e-014 -90 -90   XYZ
    dof ry
    limits (-180.0 0.0)
  end
  begin
     id 28
     name rhand
     direction -1 -4.48912e-011 -3.13339e-026   
     length 0.824702   
     axis 1.99937e-014 -90 -90   XYZ
    dof rx rz
    limits (-90.0 90.0)
           (-45.0 45.0)
  end
  begin
     id 29
     name rfingers
     direction -1 -4.49011e-011 -6.26677e-026   
     length 0.664896   
     axis 3.99874e-014 -90 -90   XYZ
    dof rx
    limits (0.0 90.0)
  end
  begin
     id 30
     name rthumb
     direction -0.707107 -6.34931e-011 0.707107   
     length 0.954662   
     axis -90 -45 -2.85299e-015   XYZ
    dof rx rz
    limits (-45.0 45.0)
           (-45.0 45.0)
  end
:hierarchy
  begin
    root lhipjoint rhipjoint lowerback
    lhipjoint lfemur
    lfemur ltibia
    ltibia lfoot
    lfoot ltoes
    rhipjoint rfemur
    rfemur rtibia
    rtibia rfoot
    rfoot rtoes
    lowerback upperback
    upperback thorax
    thorax lowerneck lclavicle rclavicle
    lowerneck upperneck
    upperneck head
    lclavicle lhumerus
    lhumerus lradius
    lradius lwrist
    lwrist lhand lthumb
    lhand lfingers
    rclavicle rhumerus
    rhumerus rradius
    rradius rwrist
    rwrist rhand rthumb
    rhand rfingers
  end

#!OML:ASF F:\VICON\USERDATA\INSTALL\rory3\rory3.ASF
:FULLY-SPECIFIED
:DEGREES
406
root 5.36285 16.0895 5.43085 2.01638 24.1643 -0.651234
lowerback 5.74348 -12.5804 0.500533
upperback -3.33976 -16.2289 12.4036
thorax -3.10592 -8.09295 14.1179
lowerneck -9.0319 -3.82946 -9.90742
upperneck 18.3036 -5.04785 7.17926
head 7.53842 -2.47819 3.53544
rclavicle -3.57812e-015 -6.04305e-014
rhumerus -51.2078 -24.0589 -45.135
rradius 21.828
rwrist -6.04959
rhand -12.6053 13.0348
rfingers 7.12502
rthumb 13.4736 -16.5094
lclavicle -3.57812e-015 -6.04305e-014
lhumerus 121.979 -74.3439 12.4934
lradius 55.6155
lwrist 5.99895
lhand -1.69696 15.8599
lfingers 7.12502
lthumb 23.964 44.3843
rfemur -44.8382 5.46993 31.3598
rtibia 52.5303
rfoot -5.1481 8.31119
rtoes 30.1807
lfemur -11.6699 16.356 -43.2802
ltibia 42.3027
lfoot -5.91364 -26.1752
ltoes 44.3728
407
root 5.42773 16.137 5.44385 1.81756 25.297 -0.912149
lowerback 5.67547 -12.2728 0.507855
upperback -3.15079 -15.8246 12.4426
thorax -2.94902 -7.89659 14.1121
lowerneck -9.17713 -4.40427 -10.0093
upperneck 17.7669 -5.85965 7.60458
head 7.48029 -2.82696 3.60426
rclavicle -6.63941e-014 0
rhumerus -50.2985 -25.5441 -44.5004
rradius 21.5434
rwrist -5.12417
rhand -13.0511 12.8359
rfingers 7.12502
rthumb 13.0439 -16.7362
lclavicle -6.63941e-014 0
lhumerus 123.109 -74.056 10.5783
lradius 55.2684
lwrist 5.97932
lhand -1.74099 17.1214
lfingers 7.12502
lthumb 23.9218 45.6514
rfemur -44.5012 5.26994 31.0423
rtibia 52.3632
rfoot -5.0748 7.91297
rtoes 31.2558
lfemur -10.6555 15.9325 -42.8973
ltibia 41.4245
lfoot -5.17287 -26.3906
ltoes 44.0205
408
root 5.48647 16.1789 5.45842 1.68722 26.6115 -1.06543
lowerback 5.67218 -12.0317 0.38054
upperback -3.08898 -15.509 12.4681
thorax -2.91257 -7.73441 14.1998
lowerneck -8.9208 -4.93683 -10.2991
upperneck 17.0206 -6.6554 8.29843
head 7.30098 -3.16908 3.79936
rclavicle 1.08139e-013 4.45278e-014
rhumerus -49.5352 -26.7394 -43.943
rradius 21.4497
rwrist -4.60553
rhand -13.632 12.4503
rfingers 7.12502
rthumb 12.4839 -17.1569
lclavicle 1.08139e-013 4.45278e-014
lhumerus 123.049 -74.3014 9.89865
lradius 54.6255
lwrist 5.27638
lhand -1.62586 18.532
lfingers 7.12502
lthumb 24.0322 47.0474
rfemur -44.2756 4.87866 30.6668
rtibia 52.1745
rfoot -4.8541 6.73767
rtoes 32.3569
lfemur -9.67132 15.4236 -42.5856
ltibia 40.5652
lfoot -4.11461 -26.6227
ltoes 44.1772
409
root 5.53379 16.1993 5.46647 1.89517 28.3027 -0.986966
lowerback 6.21593 -12.0584 -0.161897
upperback -3.62023 -15.5068 12.7625
thorax -3.55452 -7.67626 15.062
lowerneck -8.4398 -5.30111 -10.8546
upperneck 16.4766 -7.14348 8.6312
head 7.12262 -3.42008 3.95637
rclavicle 1.67377e-013 1.27222e-014
rhumerus -48.6623 -26.6179 -43.5122
rradius 21.5967
rwrist -4.63632
rhand -13.9383 12.7183
rfingers 7.12502
rthumb 12.1886 -16.9066
lclavicle 1.67377e-013 1.27222e-014
lhumerus 118.455 -75.2864 13.8247
lradius 53.7037
lwrist 3.99325
lhand -1.05859 19.3224
lfingers 7.12502
lthumb 24.576 47.765
rfemur -44.4783 4.40453 30.03
rtibia 52.0178
rfoot -4.79671 5.45835
rtoes 31.7445
lfemur -8.92017 14.2982 -42.5289
ltibia 39.8983
lfoot -2.45239 -26.781
ltoes 44.8538
410
root 5.58033 16.2234 5.4703 2.04289 30.3194 -1.1261
lowerback 3.63732 -12.0814 0.0232479
upperback -2.15954 -15.833 12.214
thorax -0.704104 -8.01794 13.3822
lowerneck -8.81363 -5.94553 -10.2528
upperneck 14.6112 -8.16413 9.87957
head 6.72312 -3.76945 4.14392
rclavicle 3.81667e-014 -2.54444e-014
rhumerus -47.1521 -30.6956 -44.1814
rradius 21.5304
rwrist -3.30041
rhand -14.277 12.9509
rfingers 7.12502
rthumb 11.862 -16.6931
lclavicle 3.81667e-014 -2.54444e-014
lhumerus 120.152 -73.5467 9.70587
lradius 53.4297
lwrist 3.36995
lhand -0.0978907 19.854
lfingers 7.12502
lthumb 25.4966 48.1682
rfemur -44.728 3.89848 29.5164
rtibia 51.8886
rfoot -5.02003 4.40476
rtoes 30.1448
lfemur -8.25623 13.1398 -42.211
ltibia 39.4248
lfoot -0.68907 -27.0807
ltoes 45.3169
411
root 5.63882 16.2606 5.47919 1.93621 32.3149 -1.39015
lowerback 4.40108 -12.0977 -0.133383
upperback -2.84481 -15.7366 12.6715
thorax -1.69712 -7.91139 14.2954
lowerneck -8.65295 -6.42188 -10.6773
upperneck 14.5605 -8.72669 9.64936
head 6.74976 -4.08315 4.08155
rclavicle 2.74323e-014 -2.54444e-014
rhumerus -46.42 -30.2495 -43.6014
rradius 22.1013
rwrist -4.21223
rhand -15.0665 11.9249
rfingers 7.12502
rthumb 11.1007 -17.7615
lclavicle 2.74323e-014 -2.54444e-014
lhumerus 115.29 -74.7579 13.8385
lradius 53.2842
lwrist 2.52775
lhand 0.32093 20.6889
lfingers 7.12502
lthumb 25.8977 48.9451
rfemur -44.6564 3.20638 29.1156
rtibia 51.7276
rfoot -5.22952 3.92291
rtoes 29.683
lfemur -7.46379 12.4376 -41.7014
ltibia 39.1055
lfoot 0.216214 -27.5328
ltoes 44.2575
